<?xml version="1.0" encoding="utf-8"?>
<!-- Svg Vector Icons : http://www.onlinewebfonts.com/icon -->
<!DOCTYPE svg PUBLIC "-//W3C//DTD SVG 1.1//EN" "http://www.w3.org/Graphics/SVG/1.1/DTD/svg11.dtd">
<svg version="1.1" xmlns="http://www.w3.org/2000/svg" xmlns:xlink="http://www.w3.org/1999/xlink" x="0px" y="0px" viewBox="0 0 1000 1000" enable-background="new 0 0 1000 1000" xml:space="preserve">
<metadata> Svg Vector Icons : http://www.onlinewebfonts.com/icon </metadata>
<g><path d="M979.8,527.7L525.4,73.3c-3.6-3.6-7.8-6.3-12.3-8c-12.7-5.2-27.8-2.7-38,7.6L20.2,527.7c-13.7,13.7-13.7,35.8,0,49.5s35.8,13.7,49.5,0L500,146.8l430.3,430.3c13.7,13.7,35.8,13.7,49.5,0C993.4,563.5,993.4,541.3,979.8,527.7z"/><path d="M782.7,542.2c-19.3,0-35,15.7-35,35v290.2H252V577.2c0-19.3-15.7-35-35-35c-19.3,0-35,15.7-35,35v325.2c0,18.7,14.7,34,33.2,34.9c0.6,0,1.2,0,1.8,0h565.7c0.7,0,1.4,0,2.1-0.1c1.7-0.1,3.4-0.3,5-0.6c5.4-1.1,10.4-3.5,14.6-6.8c1.1-0.9,2.1-1.8,3.1-2.7c0.1-0.1,0.2-0.2,0.3-0.4c1.1-1.1,2-2.2,3-3.4c0,0,0,0,0,0c1.7-2.2,3.1-4.7,4.2-7.3c0.1-0.2,0.2-0.4,0.2-0.6c0.1-0.4,0.3-0.7,0.4-1.1c0.3-0.8,0.5-1.6,0.8-2.4c0.2-0.6,0.3-1.2,0.5-1.8c0.1-0.3,0.2-0.7,0.2-1.1c0.4-2.1,0.6-4.3,0.6-6.6V577.2C817.7,557.9,802,542.2,782.7,542.2z"/></g>
</svg>